<?xml version="1.0" standalone="no"?><svg xmlns="http://www.w3.org/2000/svg" viewBox="0 0 1440 320"><path fill="#0099ff" fill-opacity="1" d="M0,0L20,42.7C40,85,80,171,120,181.3C160,192,200,128,240,96C280,64,320,64,360,85.3C400,107,440,149,480,186.7C520,224,560,256,600,250.7C640,245,680,203,720,181.3C760,160,800,160,840,160C880,160,920,160,960,176C1000,192,1040,224,1080,245.3C1120,267,1160,277,1200,234.7C1240,192,1280,96,1320,69.3C1360,43,1400,85,1420,106.7L1440,128L1440,320L1420,320C1400,320,1360,320,1320,320C1280,320,1240,320,1200,320C1160,320,1120,320,1080,320C1040,320,1000,320,960,320C920,320,880,320,840,320C800,320,760,320,720,320C680,320,640,320,600,320C560,320,520,320,480,320C440,320,400,320,360,320C320,320,280,320,240,320C200,320,160,320,120,320C80,320,40,320,20,320L0,320Z"></path></svg>